<svg xmlns="http://www.w3.org/2000/svg" width="25" height="24" viewBox="0 0 25 24" fill="none"><path fill-rule="evenodd" clip-rule="evenodd" d="M16.4 15.3106C15.2879 16.0124 13.9704 16.4185 12.5581 16.4185C10.8932 16.4185 9.36016 15.8541 8.13976 14.9063C8.13916 14.8678 8.13885 14.8293 8.13885 14.7907C8.13885 11.9069 9.83212 9.41855 12.2787 8.26567C14.7252 9.41855 16.4185 11.9069 16.4185 14.7907C16.4185 14.9655 16.4123 15.1389 16.4 15.3106ZM15.7366 17.8553C14.7459 18.2196 13.6752 18.4185 12.5581 18.4185C11.1784 18.4185 9.86955 18.1151 8.69463 17.5713C9.3842 19.2194 10.6682 20.5569 12.2787 21.3158C13.7956 20.601 15.0229 19.3728 15.7366 17.8553ZM6.34123 12.8616C6.79252 10.7443 7.9715 8.89638 9.60386 7.5921C9.47322 7.58505 9.34165 7.58148 9.20925 7.58148C7.79697 7.58148 6.47954 7.98758 5.36736 8.68936C5.35512 8.86106 5.3489 9.03443 5.3489 9.20925C5.3489 10.5421 5.71061 11.7905 6.34123 12.8616ZM3.43498 10.4736C3.72507 12.5863 4.73169 14.4705 6.20179 15.8731C6.49094 18.3429 7.75731 20.5139 9.60386 21.9894C9.47322 21.9964 9.34165 22 9.20925 22C5.22769 22 2 18.7723 2 14.7907C2 13.1716 2.53378 11.6771 3.43498 10.4736ZM3.49463 7.56853C4.26849 3.26519 8.03201 0 12.5581 0C17.2781 0 21.1687 3.5508 21.7045 8.12686C23.4622 9.80397 24.5573 12.1695 24.5573 14.7907C24.5573 19.8769 20.4342 24 15.3481 24C14.2719 24 13.2387 23.8154 12.2787 23.4761C11.3186 23.8154 10.2855 24 9.20925 24C4.12312 24 0 19.8769 0 14.7907C0 11.8636 1.36568 9.25536 3.49463 7.56853ZM6.03079 6.14471C7.18266 3.69552 9.6724 2 12.5581 2C15.5541 2 18.1233 3.82755 19.2116 6.42866C18.0367 5.88491 16.7278 5.58148 15.3481 5.58148C14.2719 5.58148 13.2387 5.7661 12.2787 6.10539C11.3186 5.7661 10.2855 5.58148 9.20925 5.58148C8.09214 5.58148 7.0215 5.78039 6.03079 6.14471ZM19.7665 9.09372C18.5461 8.14585 17.013 7.58148 15.3481 7.58148C15.2157 7.58148 15.0841 7.58505 14.9535 7.5921C16.7545 9.03116 18.0036 11.132 18.3324 13.5263C19.2336 12.3229 19.7674 10.8284 19.7674 9.20925C19.7674 9.17067 19.7671 9.13216 19.7665 9.09372ZM21.565 11.1384C21.111 13.2685 19.9205 15.1259 18.2728 16.4314C17.8704 18.6692 16.6596 20.6262 14.9535 21.9894C15.0841 21.9964 15.2157 22 15.3481 22C19.3297 22 22.5573 18.7723 22.5573 14.7907C22.5573 13.4579 22.1956 12.2095 21.565 11.1384Z" fill="#B5A580"></path></svg>